<svg width="800" height="600" xmlns="http://www.w3.org/2000/svg">

 <g>
  <title>Layer 1</title>
  <ellipse ry="221" rx="265.5" id="svg_3" cy="300" cx="400" stroke="#000" fill="#fff"/>
  <path id="svg_6" d="m358,396c0,1 4,-193 7,-193c3,0 41,9 44,11c3,2 1,2 8,7c7,5 21,15 22,23c1,8 2,11 4,22c2,11 5,14 4,25c-1,11 -2,21 -3,29c-1,8 -11,21 -13,25c-2,4 -9,12 -9,12c0,0 -15,8 -16,11c-1,3 -9,10 -12,14c-3,4 -4,4 -7,6c-3,2 -29,7 -29,8z" opacity="NaN" stroke="#000" fill="#fff"/>
  <line id="svg_7" y2="416" x2="308" y1="419" x1="478" stroke="#000" fill="none"/>
 </g>
</svg>